<svg width="20" height="20" viewBox="0 0 20 20" fill="none" xmlns="http://www.w3.org/2000/svg">
<g clip-path="url(#clip0_63_23)">
<path opacity="0.5" d="M10.8198 18.7459L11.2673 17.99C11.614 17.4042 11.7882 17.1109 12.0673 16.9484C12.3457 16.7867 12.6965 16.7809 13.399 16.7684C14.4348 16.7509 15.0848 16.6875 15.6307 16.4617C16.6418 16.0429 17.4452 15.2395 17.864 14.2284C18.019 13.8567 18.0973 13.4359 18.1373 12.8759C18.1582 12.58 18.169 12.4317 18.0898 12.3134C18.0107 12.1942 17.8607 12.1442 17.5598 12.0434C16.3007 11.6209 13.3815 10.5467 11.7498 9.16753C9.91067 7.61169 8.26484 4.45086 7.67567 3.23836C7.559 2.99752 7.50067 2.87752 7.39734 2.81336C7.29484 2.75002 7.164 2.75169 6.904 2.75419C5.20817 2.77169 4.44067 2.86586 3.63734 3.35752C3.08211 3.69757 2.61523 4.16417 2.27484 4.71919C1.6665 5.71086 1.6665 7.06169 1.6665 9.76252V10.5875C1.6665 12.51 1.6665 13.4709 1.98067 14.2292C2.39988 15.2402 3.20353 16.0432 4.21484 16.4617C4.75984 16.6867 5.40984 16.7509 6.4465 16.7684C7.14817 16.7809 7.49984 16.7867 7.77817 16.9484C8.05734 17.1109 8.23067 17.4042 8.57817 17.99L9.02567 18.7459C9.424 19.4192 10.4207 19.4192 10.8198 18.7459Z" fill="#B0AEB9"/>
<path fill-rule="evenodd" clip-rule="evenodd" d="M12.3933 0.200001C12.4592 0.260315 12.5117 0.333775 12.5473 0.415635C12.583 0.497495 12.6011 0.585933 12.6005 0.675232C12.5999 0.764531 12.5805 0.852705 12.5437 0.934054C12.5069 1.0154 12.4534 1.08812 12.3867 1.1475L11.4683 1.9925C12.2675 2 13.0358 2.0175 13.73 2.06167C14.3258 2.09917 14.885 2.15667 15.3717 2.24667C15.8483 2.335 16.3075 2.46333 16.6717 2.66917C17.34 3.04179 17.9111 3.56685 18.3383 4.20167C18.7383 4.8025 18.9158 5.4825 19 6.30167C19.0833 7.10417 19.0833 8.10667 19.0833 9.3775V9.4125C19.0833 9.78333 18.7608 10.0833 18.3633 10.0833C17.965 10.0833 17.6425 9.78333 17.6425 9.4125C17.6425 8.09917 17.6425 7.16083 17.5667 6.43083C17.4917 5.71083 17.35 5.2625 17.1142 4.90833C16.8097 4.45614 16.4028 4.08212 15.9267 3.81667C15.7717 3.72917 15.5025 3.63833 15.09 3.5625C14.6075 3.48001 14.1205 3.42575 13.6317 3.4C12.9151 3.35923 12.1977 3.337 11.48 3.33333L12.3867 4.16667C12.67 4.4275 12.6725 4.85167 12.3933 5.11583C12.2546 5.243 12.0735 5.31403 11.8853 5.31511C11.6971 5.31619 11.5152 5.24724 11.375 5.12167L9.21417 3.13333C9.14735 3.07309 9.0938 2.9996 9.05693 2.91753C9.02006 2.83547 9.00067 2.74663 9 2.65667C9 2.4775 9.07667 2.30583 9.21417 2.17917L11.375 0.193334C11.5152 0.0677619 11.6971 -0.00118774 11.8853 -0.000109615C12.0735 0.000968504 12.2546 0.0719973 12.3933 0.199167V0.200001Z" fill="#B0AEB9"/>
</g>
<defs>
<clipPath id="clip0_63_23">
<rect width="20" height="20" fill="white"/>
</clipPath>
</defs>
</svg>
